<svg width="640" height="640" viewBox="0 0 640 640" fill="none" xmlns="http://www.w3.org/2000/svg">
  <defs>
    <linearGradient id="bg" x1="0" y1="0" x2="640" y2="640" gradientUnits="userSpaceOnUse">
      <stop offset="0%" stop-color="#11284E"/>
      <stop offset="100%" stop-color="#0C1732"/>
    </linearGradient>
    <linearGradient id="face" x1="320" y1="180" x2="320" y2="460" gradientUnits="userSpaceOnUse">
      <stop offset="0%" stop-color="#F7D8A4"/>
      <stop offset="100%" stop-color="#E0B57E"/>
    </linearGradient>
  </defs>
  <rect width="640" height="640" rx="40" fill="url(#bg)"/>
  <circle cx="320" cy="220" r="130" fill="url(#face)"/>
  <path d="M200 520C200 420 260 360 320 360C380 360 440 420 440 520H200Z" fill="#FFCFA0"/>
  <path d="M250 330C250 300 270 280 320 280C370 280 390 300 390 330" stroke="#6B4F3E" stroke-width="14" stroke-linecap="round"/>
  <circle cx="280" cy="210" r="18" fill="#6B4F3E"/>
  <circle cx="360" cy="210" r="18" fill="#6B4F3E"/>
  <path d="M262 240C262 252 275 263 292 263C309 263 322 252 322 240" stroke="#6B4F3E" stroke-width="12" stroke-linecap="round"/>
  <circle cx="330" cy="165" r="14" fill="#E6EEF6" opacity="0.8"/>
  <circle cx="185" cy="135" r="12" fill="#79B8FF" opacity="0.75"/>
  <circle cx="515" cy="140" r="12" fill="#79B8FF" opacity="0.75"/>
  <path d="M140 540C170 510 250 520 270 560" stroke="#2EA0FF" stroke-width="18" stroke-linecap="round" opacity="0.7"/>
  <path d="M430 540C460 500 540 510 570 560" stroke="#2EA0FF" stroke-width="18" stroke-linecap="round" opacity="0.7"/>
</svg>
